<svg width="30" height="420" viewBox="0 0 30 420" fill="none" xmlns="http://www.w3.org/2000/svg">
<path d="M16.728 2C16.728 0.89543 15.8326 -4.82823e-08 14.728 0C13.6235 4.82823e-08 12.728 0.895431 12.728 2L14.728 2L16.728 2ZM13.3138 419.414C14.0949 420.195 15.3612 420.195 16.1423 419.414L28.8702 406.686C29.6512 405.905 29.6512 404.639 28.8702 403.858C28.0891 403.077 26.8228 403.077 26.0418 403.858L14.728 415.172L3.41434 403.858C2.63329 403.077 1.36696 403.077 0.585909 403.858C-0.195139 404.639 -0.195139 405.905 0.585909 406.686L13.3138 419.414ZM14.728 2L12.728 2L12.728 418L14.728 418L16.728 418L16.728 2L14.728 2Z" fill="#187B8B"/>
</svg>
