<svg width="600" height="145" viewBox="0 0 600 145" fill="none" xmlns="http://www.w3.org/2000/svg">
<g clip-path="url(#clip0_1866_30378)">
<path d="M384.018 94.8266C398.512 94.8266 410.262 83.0804 410.262 68.5908C410.262 54.1011 398.512 42.355 384.018 42.355C369.524 42.355 357.774 54.1011 357.774 68.5908C357.774 83.0804 369.524 94.8266 384.018 94.8266Z" fill="#E65234"/>
<path d="M226.87 60.8784L214.562 73.1817L202.255 60.8784L194.206 68.9257L206.513 81.229L194.206 93.5322L202.255 101.586L214.562 89.2763L226.87 101.586L234.926 93.5322L222.612 81.229L234.926 68.9257L226.87 60.8784Z" fill="#E65234"/>
<path d="M167.429 0H0V145H167.429V0Z" fill="#008971"/>
<path d="M429.126 0H261.697V145H429.126V0Z" fill="#E65234"/>
<path d="M17.5186 69.0185V117.693H66.3442L97.5148 130.039H146.341V81.235V81.2226V32.4247H97.5148L66.3442 20.2144H17.5186V68.8884" fill="white"/>
<path d="M17.5186 69.0185V117.693H66.3442L97.5148 130.039H146.341V81.235V81.2226V32.4247H97.5148L66.3442 20.2144H17.5186V68.8884" stroke="#3C3C3B" stroke-width="1.9" stroke-miterlimit="10"/>
<path d="M97.7935 120.418H143.75" stroke="#3C3C3B" stroke-width="1.9" stroke-miterlimit="10"/>
<path d="M133.438 123.386H143.124" stroke="#3C3C3B" stroke-width="1.9" stroke-miterlimit="10"/>
<path d="M133.438 125.238H143.124" stroke="#3C3C3B" stroke-width="1.9" stroke-miterlimit="10"/>
<path d="M133.438 127.084H143.124" stroke="#3C3C3B" stroke-width="1.9" stroke-miterlimit="10"/>
<path d="M19.5762 108.072H66.4374" stroke="#3C3C3B" stroke-width="1.9" stroke-miterlimit="10"/>
<path d="M17.5186 68.8389L21.057 68.8513" stroke="#3C3C3B" stroke-width="1.9" stroke-miterlimit="10"/>
<path d="M28.3511 68.8696L53.8949 68.9378" stroke="#3C3C3B" stroke-width="1.9" stroke-miterlimit="10" stroke-dasharray="11.78 11.78 11.78 11.78"/>
<path d="M57.5444 68.9502L66.3441 68.975L97.5147 81.1853H139.158" stroke="#3C3C3B" stroke-width="1.9" stroke-miterlimit="10" stroke-dasharray="11.78 11.78 11.78 11.78 11.78 11.78"/>
<path d="M142.802 81.1855H146.341" stroke="#3C3C3B" stroke-width="1.9" stroke-miterlimit="10"/>
<path d="M66.4375 20.2144V117.693" stroke="#3C3C3B" stroke-width="1.9" stroke-miterlimit="10" stroke-dasharray="11.42 11.42 11.42 11.42 11.42 11.42"/>
<path d="M97.7935 32.4248V130.039" stroke="#3C3C3B" stroke-width="1.9" stroke-miterlimit="10" stroke-dasharray="11.42 11.42 11.42 11.42 11.42 11.42"/>
<path d="M66.4375 108.072L97.794 120.418" stroke="#3C3C3B" stroke-width="1.9" stroke-miterlimit="10"/>
<path d="M127.812 107.112H93.084V94.2632L71.6302 83.6821H36.2891V34.1655H60.8042V61.9067H73.669V44.4244H93.4434V51.9947H127.805V107.118L127.812 107.112ZM94.8873 105.315H126.015V53.7851H91.6525V46.2148H75.4785V63.6971H59.0132V35.9559H38.0924V81.8794H72.0516L94.8811 93.1419V105.309L94.8873 105.315Z" fill="#3C3C3B"/>
<path d="M512.084 83.9917H465.886V95.3719H512.084V83.9917Z" fill="#E65234"/>
<path d="M512.084 63.8892H465.886V75.2694H512.084V63.8892Z" fill="#E65234"/>
<path d="M288.914 57.5765L318.361 34.8843L318.932 73.6897L289.18 92.1632L288.914 57.5765Z" fill="white" stroke="#3C3C3B" stroke-width="1.42" stroke-linecap="round" stroke-linejoin="round"/>
<path d="M318.659 34.8843L384.055 63.5299V97.7449L318.659 70.4559V34.8843Z" fill="white" stroke="#3C3C3B" stroke-width="1.53" stroke-linecap="round" stroke-linejoin="round"/>
<path d="M354.446 87.4239L384.055 63.5298V97.912L354.446 127.332V87.4239Z" fill="white" stroke="#3C3C3B" stroke-width="1.56" stroke-linecap="round" stroke-linejoin="round"/>
<path d="M289.05 57.6196L354.447 87.4237V127.332L289.05 92.2496V57.6196Z" fill="white" stroke="#3C3C3B" stroke-width="1.56" stroke-linecap="round" stroke-linejoin="round"/>
<path d="M318.659 34.8843L384.055 63.5299L354.31 90.4348L288.914 57.3597L318.659 34.8843Z" fill="white" stroke="#3C3C3B" stroke-width="1.56" stroke-linecap="round" stroke-linejoin="round"/>
<path d="M298.414 55.8543L318.362 40.311L343.286 51.5302L323.09 68.7275L298.414 55.8543Z" fill="white" stroke="#3C3C3B" stroke-width="1.44" stroke-linecap="round" stroke-linejoin="round"/>
<path d="M327.824 70.9328L347.865 53.7231L374.791 65.4503L353.616 84.1529L327.824 70.9328Z" fill="white" stroke="#3C3C3B" stroke-width="1.54" stroke-linecap="round" stroke-linejoin="round"/>
<path d="M318.362 40.3105V65.8711" stroke="#3C3C3B" stroke-width="1.44" stroke-linecap="round" stroke-linejoin="round"/>
<path d="M347.865 53.7231V80.6652" stroke="#3C3C3B" stroke-width="1.44" stroke-linecap="round" stroke-linejoin="round"/>
<path d="M379.067 15.4873C377.505 15.4873 376.018 15.8032 374.661 16.3732C372.876 10.7667 367.621 6.70898 361.424 6.70898C353.975 6.70898 347.896 12.5756 347.549 19.9353C346.873 19.7804 346.173 19.6875 345.454 19.6875C340.336 19.6875 336.19 23.8319 336.19 28.949C336.19 34.0661 340.336 38.2105 345.454 38.2105H379.067C385.344 38.2105 390.432 33.1244 390.432 26.8489C390.432 20.5734 385.344 15.4873 379.067 15.4873Z" fill="white" stroke="#3C3C3B" stroke-width="1.56" stroke-linecap="round" stroke-linejoin="round"/>
<path d="M358.214 28.0819H359.342C359.757 28.0819 360.079 28.466 359.986 28.8687C359.875 29.3581 359.695 29.8103 359.435 30.2192C359.045 30.8387 358.499 31.3281 357.805 31.675C357.111 32.0219 356.274 32.2016 355.295 32.2016C354.533 32.2016 353.845 32.0715 353.238 31.8051C352.631 31.5387 352.116 31.1608 351.689 30.6652C351.261 30.1696 350.933 29.5687 350.71 28.8625C350.487 28.1563 350.375 27.3695 350.375 26.496V25.6721C350.375 24.7986 350.493 24.0118 350.722 23.3056C350.951 22.5994 351.286 21.9984 351.72 21.5028C352.154 21.0073 352.674 20.6232 353.281 20.3568C353.889 20.0904 354.564 19.9541 355.314 19.9541C356.305 19.9541 357.148 20.1338 357.83 20.4931C358.512 20.8524 359.045 21.348 359.429 21.9799C359.677 22.3949 359.863 22.8472 359.98 23.3428C360.079 23.7516 359.757 24.1419 359.336 24.1419H358.233C357.917 24.1419 357.65 23.9127 357.594 23.603C357.545 23.349 357.47 23.1197 357.371 22.9215C357.21 22.587 356.962 22.333 356.628 22.1595C356.299 21.9861 355.859 21.8993 355.314 21.8993C354.905 21.8993 354.546 21.9737 354.242 22.1285C353.938 22.2834 353.678 22.5126 353.473 22.8224C353.269 23.1321 353.114 23.5224 353.009 23.9994C352.91 24.4703 352.86 25.0216 352.86 25.6597V26.5022C352.86 27.1217 352.903 27.6607 352.996 28.1253C353.089 28.5899 353.232 28.9864 353.424 29.3023C353.616 29.6245 353.87 29.8599 354.18 30.021C354.49 30.182 354.862 30.2626 355.295 30.2626C355.81 30.2626 356.231 30.182 356.566 30.0148C356.9 29.8537 357.154 29.6059 357.334 29.2838C357.439 29.0855 357.526 28.8625 357.576 28.6085C357.638 28.305 357.904 28.0819 358.214 28.0819Z" fill="#1D1D1B"/>
<path d="M371.5 25.7958V26.3596C371.5 27.264 371.376 28.0756 371.135 28.8004C370.887 29.519 370.54 30.1323 370.093 30.6403C369.647 31.1483 369.114 31.5324 368.495 31.7988C367.875 32.0652 367.187 32.2014 366.437 32.2014C365.687 32.2014 365.006 32.0652 364.386 31.7988C363.766 31.5324 363.227 31.1483 362.775 30.6403C362.323 30.1385 361.969 29.5252 361.721 28.8004C361.474 28.0818 361.35 27.264 361.35 26.3596V25.7958C361.35 24.8852 361.474 24.0674 361.715 23.355C361.957 22.6426 362.31 22.0231 362.756 21.5151C363.209 21.0071 363.742 20.623 364.361 20.3504C364.981 20.0778 365.663 19.9478 366.413 19.9478C367.162 19.9478 367.85 20.084 368.47 20.3504C369.09 20.6168 369.623 21.0071 370.075 21.5151C370.527 22.0231 370.874 22.6364 371.122 23.355C371.37 24.0736 371.494 24.8852 371.494 25.7958H371.5ZM369.015 26.3596V25.7772C369.015 25.1454 368.959 24.5878 368.842 24.1046C368.73 23.6214 368.557 23.2187 368.334 22.8904C368.11 22.562 367.838 22.3142 367.516 22.147C367.193 21.9797 366.828 21.8992 366.413 21.8992C365.997 21.8992 365.632 21.9797 365.309 22.147C364.987 22.3142 364.721 22.562 364.498 22.8904C364.275 23.2187 364.107 23.6214 363.996 24.1046C363.884 24.5816 363.822 25.1392 363.822 25.7772V26.3596C363.822 26.9853 363.878 27.5428 363.996 28.026C364.107 28.5092 364.281 28.9181 364.504 29.2464C364.727 29.5748 365 29.8288 365.322 29.996C365.644 30.1633 366.01 30.25 366.425 30.25C366.84 30.25 367.206 30.1633 367.528 29.996C367.85 29.8288 368.123 29.5748 368.34 29.2464C368.557 28.9181 368.724 28.5092 368.842 28.026C368.959 27.5428 369.015 26.9853 369.015 26.3596Z" fill="#1D1D1B"/>
<path d="M377.871 31.3776C377.871 31.7369 377.579 32.0343 377.214 32.0343H373.471C373.111 32.0343 372.814 31.7431 372.814 31.3776V31.2289C372.814 31.0431 372.895 30.8696 373.031 30.7457L375.156 28.8191C375.361 28.6332 375.522 28.4598 375.646 28.2925C375.77 28.1252 375.863 27.9766 375.931 27.8403C375.993 27.704 376.024 27.5987 376.024 27.5057C376.024 27.2951 375.956 27.1217 375.826 26.9916C375.689 26.8615 375.491 26.7933 375.231 26.7933C374.933 26.7933 374.704 26.8862 374.555 27.0659C374.487 27.1464 374.438 27.2332 374.4 27.3323C374.307 27.5739 374.066 27.7226 373.805 27.7226H373.471C372.981 27.7226 372.671 27.2084 372.882 26.7685C372.907 26.7128 372.938 26.657 372.975 26.6013C373.18 26.2605 373.465 25.9942 373.836 25.7897C374.208 25.5853 374.648 25.48 375.163 25.48C375.677 25.48 376.154 25.5605 376.532 25.7216C376.91 25.8827 377.195 26.1119 377.394 26.4154C377.592 26.719 377.691 27.0783 377.691 27.5057C377.691 27.8217 377.623 28.1067 377.493 28.3668C377.363 28.627 377.164 28.8748 376.904 29.1288C376.644 29.3766 376.309 29.6616 375.906 29.9714L374.995 30.7333H377.214C377.573 30.7333 377.871 31.0245 377.871 31.39V31.3776Z" fill="#1D1D1B"/>
<path d="M369.294 46.8711L395.662 58.4186L364.739 86.389" fill="white"/>
<path d="M369.294 46.8711L395.662 58.4186L364.739 86.389" stroke="#3C3C3B" stroke-width="2.1" stroke-linecap="round" stroke-linejoin="round"/>
<path d="M369.294 46.8711C362.341 51.5917 357.774 59.5584 357.774 68.5907C357.774 75.461 360.42 81.7117 364.739 86.389" stroke="#E65234" stroke-linecap="round" stroke-linejoin="round"/>
<path d="M369.294 46.8711C373.496 44.0214 378.558 42.355 384.018 42.355C398.513 42.355 410.262 54.1007 410.262 68.5908C410.262 83.0809 398.513 94.8266 384.018 94.8266C376.396 94.8266 369.536 91.5742 364.739 86.389" stroke="#E65234" stroke-linecap="round" stroke-linejoin="round"/>
<path d="M363.221 84.5923C368.018 90.8121 375.547 94.8264 384.012 94.8264C388.195 94.8264 392.148 93.8414 395.656 92.1068" stroke="#E65234" stroke-linecap="round" stroke-linejoin="round"/>
<path d="M363.221 84.5924C359.807 80.163 357.768 74.6123 357.768 68.5908C357.768 54.1007 369.517 42.355 384.012 42.355C398.507 42.355 410.256 54.1007 410.256 68.5908C410.256 78.8992 404.307 87.8138 395.65 92.107" stroke="#E65234" stroke-linecap="round" stroke-linejoin="round"/>
<path d="M395.663 58.4185V92.1068" stroke="#3C3C3B" stroke-width="2.1" stroke-linecap="round" stroke-linejoin="round"/>
<path d="M363.221 84.5923L395.662 58.4185" stroke="#3C3C3B" stroke-width="2.1" stroke-linecap="round" stroke-linejoin="round"/>
<path d="M369.294 46.8711L395.662 58.4186V92.1069" fill="white"/>
<path d="M369.294 46.8711L395.662 58.4186V92.1069" stroke="#3C3C3B" stroke-width="2.1" stroke-linecap="round" stroke-linejoin="round"/>
<path d="M369.294 46.8711C373.495 44.0214 378.558 42.355 384.018 42.355C398.513 42.355 410.262 54.1007 410.262 68.5908C410.262 78.8992 404.313 87.8138 395.656 92.107" stroke="#E65234" stroke-linecap="round" stroke-linejoin="round"/>
<path d="M369.294 46.8711C362.341 51.5917 357.774 59.5584 357.774 68.5907C357.774 81.7985 367.534 92.7264 380.244 94.5601C381.477 94.7398 382.741 94.8327 384.024 94.8327C388.207 94.8327 392.161 93.8477 395.668 92.1131" fill="white"/>
<path d="M369.294 46.8711C362.341 51.5917 357.774 59.5584 357.774 68.5907C357.774 81.7985 367.534 92.7264 380.244 94.5601C381.477 94.7398 382.741 94.8327 384.024 94.8327C388.207 94.8327 392.161 93.8477 395.668 92.1131" stroke="#3C3C3B" stroke-width="2.1" stroke-linecap="round" stroke-linejoin="round"/>
<path d="M363.376 52.3912C368.179 46.2829 375.64 42.3491 384.018 42.3491C398.513 42.3491 410.262 54.0948 410.262 68.5849C410.262 83.075 398.513 94.8207 384.018 94.8207C373.93 94.8207 365.173 89.1213 360.78 80.7767" stroke="#E65234" stroke-linecap="round" stroke-linejoin="round"/>
<path d="M363.376 52.3911C359.869 56.8515 357.768 62.4766 357.768 68.591C357.768 72.9957 358.859 77.1401 360.774 80.7828" stroke="#E65234" stroke-linecap="round" stroke-linejoin="round"/>
<path d="M363.376 52.3911L382.023 60.8968L360.78 80.7828" fill="white"/>
<path d="M363.376 52.3911L382.023 60.8968L360.78 80.7828" stroke="#3C3C3B" stroke-width="2.1" stroke-linecap="round" stroke-linejoin="round"/>
<path d="M395.662 58.4189L365.471 87.1575" stroke="#3C3C3B" stroke-width="2.1" stroke-linecap="round" stroke-linejoin="round"/>
<path d="M408.025 54.1259C399.888 40.6208 382.159 36.4453 368.811 45.0502C356.758 52.8187 352.507 68.7274 359.106 81.452C366.065 94.8641 382.029 100.087 395.284 94.2446L416.019 128.639C417.041 130.337 419.248 130.882 420.946 129.86C422.644 128.837 423.189 126.632 422.166 124.935L401.431 90.54C412.326 81.9166 415.381 66.3424 408.019 54.132L408.025 54.1259ZM396.226 88.8426C385.04 95.5827 370.502 91.9773 363.766 80.7953C357.024 69.6133 360.631 55.0799 371.816 48.3459C383.002 41.6058 397.54 45.2113 404.276 56.3932C411.018 67.5752 407.411 82.1086 396.226 88.8426Z" fill="#008971"/>
<path d="M549.039 32.2519C553.218 32.0292 556.367 27.3564 556.072 21.8147C555.777 16.2731 552.149 11.9612 547.969 12.1838C543.789 12.4064 540.64 17.0793 540.936 22.621C541.231 28.1626 544.859 32.4745 549.039 32.2519Z" fill="#E65234"/>
<path d="M562.516 28.3C565.196 28.1573 567.238 25.6154 567.079 22.6225C566.919 19.6296 564.618 17.3191 561.938 17.4618C559.259 17.6045 557.216 20.1464 557.376 23.1393C557.535 26.1322 559.837 28.4428 562.516 28.3Z" fill="#E65234"/>
<path d="M573.428 28.4568C576.107 28.3141 578.15 25.7721 577.99 22.7792C577.831 19.7863 575.529 17.4758 572.85 17.6185C570.171 17.7613 568.128 20.3032 568.287 23.2961C568.447 26.289 570.748 28.5995 573.428 28.4568Z" fill="#E65234"/>
<path d="M584.415 29.9021C587.094 29.7594 589.137 27.2174 588.977 24.2245C588.818 21.2316 586.516 18.9211 583.837 19.0638C581.157 19.2066 579.115 21.7485 579.274 24.7414C579.434 27.7343 581.735 30.0448 584.415 29.9021Z" fill="#E65234"/>
<path d="M595.429 31.9832C598.108 31.8404 600.151 29.2985 599.991 26.3056C599.832 23.3127 597.53 21.0022 594.851 21.1449C592.172 21.2876 590.129 23.8295 590.288 26.8224C590.448 29.8153 592.749 32.1259 595.429 31.9832Z" fill="#E65234"/>
<path d="M580.244 51.3501C579.966 50.9475 579.631 50.6377 579.228 50.4333C578.825 50.2289 578.373 50.1235 577.859 50.1235C577.344 50.1235 576.892 50.2289 576.495 50.4333C576.099 50.6377 575.764 50.9475 575.491 51.3501C575.219 51.759 575.008 52.2546 574.865 52.8493C574.723 53.444 574.655 54.1317 574.655 54.9185V55.6371C574.655 56.4114 574.723 57.1053 574.865 57.7C575.008 58.3009 575.219 58.8027 575.498 59.2116C575.776 59.6205 576.111 59.9302 576.514 60.1408C576.91 60.3515 577.369 60.4568 577.883 60.4568C578.398 60.4568 578.856 60.3515 579.253 60.1408C579.65 59.9302 579.984 59.6205 580.257 59.2116C580.529 58.8027 580.734 58.3009 580.876 57.7C581.019 57.0991 581.087 56.4114 581.087 55.6371V54.9185C581.087 54.1317 581.019 53.444 580.876 52.8493C580.734 52.2546 580.523 51.7528 580.251 51.3501H580.244Z" fill="#E65234"/>
<path d="M593.146 35.1627C590.928 33.7441 588.257 32.9821 585.431 33.137L557.533 34.6238C551.286 34.9583 546.304 39.6231 545.337 45.5517C545.244 46.1217 545.213 46.6978 545.244 47.2677C545.312 48.5997 545.765 49.882 546.434 51.0405L558.772 72.3327C560.538 75.4674 561.3 78.1622 562.05 80.2313L568.284 118.758C568.47 119.904 568.873 121.025 569.555 121.961C571.023 123.974 573.44 125.188 576.037 125.046L589.056 124.352C592.917 124.148 595.991 121.05 596.164 117.191L596.257 69.6998L598.897 47.7757C599.492 42.8321 597.348 37.8514 593.153 35.1751L593.146 35.1627ZM569.889 58.7409C569.753 59.348 569.53 59.9055 569.208 60.4135C568.724 61.1879 568.049 61.7888 567.187 62.2225C566.326 62.6561 565.291 62.8729 564.077 62.8729C563.128 62.8729 562.279 62.7057 561.53 62.3773C560.78 62.049 560.135 61.5782 559.609 60.9649C559.076 60.3516 558.673 59.6082 558.394 58.7347C558.115 57.8612 557.979 56.8824 557.979 55.8044V54.7823C557.979 53.6981 558.121 52.7193 558.413 51.8458C558.698 50.9724 559.113 50.2228 559.652 49.6095C560.191 48.9962 560.836 48.5191 561.585 48.1908C562.335 47.8625 563.178 47.6952 564.101 47.6952C565.335 47.6952 566.369 47.9182 567.218 48.3643C568.067 48.8103 568.724 49.4236 569.195 50.2104C569.505 50.7246 569.734 51.2883 569.877 51.8954C570.001 52.3972 569.598 52.8866 569.077 52.8866H567.708C567.318 52.8866 566.989 52.6016 566.915 52.2175C566.853 51.9016 566.76 51.6228 566.642 51.3688C566.438 50.9538 566.134 50.6378 565.725 50.4272C565.316 50.2166 564.771 50.1051 564.095 50.1051C563.587 50.1051 563.147 50.198 562.763 50.39C562.379 50.5821 562.069 50.867 561.808 51.2511C561.548 51.6352 561.362 52.1246 561.232 52.707C561.108 53.2955 561.046 53.9769 561.046 54.7637V55.8106C561.046 56.5726 561.102 57.2479 561.22 57.824C561.338 58.4001 561.511 58.8895 561.753 59.286C561.994 59.6825 562.304 59.9799 562.688 60.1781C563.073 60.3763 563.531 60.4755 564.077 60.4755C564.709 60.4755 565.235 60.3763 565.651 60.1719C566.066 59.9675 566.382 59.6701 566.599 59.2674C566.735 59.0258 566.834 58.7471 566.902 58.4311C566.983 58.0532 567.305 57.7806 567.696 57.7806H569.09C569.604 57.7806 570.001 58.2577 569.889 58.7533V58.7409ZM584.161 55.6372C584.161 56.7585 584.006 57.7683 583.702 58.6603C583.399 59.5524 582.971 60.3144 582.413 60.9339C581.856 61.5596 581.199 62.0366 580.43 62.3711C579.662 62.6995 578.813 62.8667 577.877 62.8667C576.941 62.8667 576.105 62.6995 575.336 62.3711C574.568 62.0428 573.905 61.5596 573.341 60.9339C572.777 60.3082 572.343 59.5524 572.04 58.6603C571.73 57.7683 571.581 56.7585 571.581 55.6372V54.9371C571.581 53.8097 571.73 52.7999 572.04 51.9078C572.343 51.0157 572.777 50.2599 573.335 49.628C573.892 49.0023 574.556 48.5191 575.324 48.1908C576.092 47.8625 576.941 47.6952 577.865 47.6952C578.788 47.6952 579.649 47.8625 580.418 48.1908C581.186 48.5191 581.849 49.0023 582.407 49.628C582.965 50.2599 583.399 51.0157 583.702 51.9078C584.012 52.7999 584.167 53.8035 584.167 54.9371V55.6372H584.161ZM591.238 62.6685H586.602C586.156 62.6685 585.791 62.303 585.791 61.857V61.6711C585.791 61.4419 585.89 61.2251 586.057 61.0702L588.691 58.6851C588.939 58.4559 589.143 58.2391 589.298 58.0284C589.453 57.824 589.571 57.6382 589.651 57.4709C589.726 57.3036 589.769 57.1673 589.769 57.062C589.769 56.7956 589.688 56.585 589.521 56.4239C589.354 56.2629 589.112 56.1823 588.784 56.1823C588.412 56.1823 588.133 56.2938 587.947 56.5231C587.867 56.6222 587.798 56.7337 587.755 56.8514C587.637 57.1488 587.34 57.3284 587.018 57.3284H586.602C585.995 57.3284 585.611 56.6903 585.871 56.1452C585.902 56.077 585.946 56.0027 585.983 55.9345C586.231 55.5133 586.59 55.1788 587.049 54.9248C587.507 54.6708 588.059 54.5469 588.691 54.5469C589.323 54.5469 589.918 54.646 590.383 54.8442C590.847 55.0425 591.207 55.3274 591.455 55.6991C591.702 56.0708 591.826 56.5231 591.826 57.0496C591.826 57.4399 591.746 57.7992 591.585 58.1152C591.424 58.4311 591.182 58.7471 590.854 59.0568C590.531 59.3666 590.116 59.7135 589.614 60.1038L588.486 61.0454H591.238C591.684 61.0454 592.05 61.4109 592.05 61.857C592.05 62.303 591.684 62.6685 591.238 62.6685Z" fill="#E65234"/>
</g>
<defs>
<clipPath id="clip0_1866_30378">
<rect width="600" height="145" fill="white"/>
</clipPath>
</defs>
</svg>
