<svg width="829" height="458" viewBox="0 0 829 458" fill="none" xmlns="http://www.w3.org/2000/svg">
<g clip-path="url(#clip0_656_3)">
<path d="M762.183 53.2725H828.897V0H749.251C716.51 0 689.927 26.5849 689.927 59.3286V176.035C689.927 206.521 714.662 231.361 745.248 231.361H828.897V178.396H762.183C751.509 178.396 742.887 169.774 742.887 159.099V72.4671C742.887 61.792 751.509 53.1699 762.183 53.1699V53.2725Z" fill="#64B333"/>
<path d="M286.666 79.2416V51.3223C286.666 40.3393 295.595 31.4093 306.577 31.4093H328.336C342.705 31.4093 354.406 43.1108 354.406 57.481V98.5388C354.406 98.5388 354.098 99.2573 353.688 99.2573H306.577C295.595 99.2573 286.666 90.3272 286.666 79.3443V79.2416Z" fill="#E65234"/>
<path d="M0 458V122.763H117.417C158.061 122.763 188.955 130.564 209.996 146.166C231.036 161.768 241.505 184.555 241.505 214.63C241.505 231.053 237.297 245.526 228.881 258.048C220.465 270.571 208.661 279.706 193.676 285.557C210.817 289.868 224.365 298.49 234.321 311.526C244.174 324.562 249.203 340.574 249.203 359.461C249.203 391.691 238.939 416.121 218.309 432.647C197.782 449.275 168.428 457.692 130.349 458H0ZM69.0748 263.18H120.188C154.982 262.565 172.43 248.708 172.43 221.507C172.43 206.315 168.017 195.332 159.19 188.66C150.363 181.989 136.405 178.601 117.417 178.601H69.0748V263.078V263.18ZM69.0748 312.039V402.469H128.194C144.41 402.469 157.137 398.569 166.272 390.87C175.407 383.172 179.923 372.394 179.923 358.743C179.923 328.052 164.014 312.45 132.299 312.039H68.9721H69.0748Z" fill="#356C75"/>
<path d="M355.124 458H286.05V122.763H355.124V458Z" fill="#356C75"/>
<path d="M478.494 339.856V458H409.419V122.763H540.179C565.325 122.763 587.495 127.382 606.585 136.62C625.676 145.858 640.353 158.894 650.719 175.83C660.983 192.766 666.115 212.063 666.115 233.721C666.115 266.568 654.825 292.434 632.347 311.423C609.87 330.413 578.771 339.856 538.947 339.856H478.392H478.494ZM478.494 283.915H540.179C558.449 283.915 572.407 279.604 581.952 270.981C591.498 262.359 596.322 250.145 596.322 234.132C596.322 218.119 591.498 204.468 581.85 194.306C572.202 184.144 558.859 179.012 541.821 178.601H478.494V283.812V283.915Z" fill="#356C75"/>
</g>
<defs>
<clipPath id="clip0_656_3">
<rect width="829" height="458" fill="white"/>
</clipPath>
</defs>
</svg>
