<svg width="400" height="420" viewBox="0 0 400 420" fill="none" xmlns="http://www.w3.org/2000/svg">
<path d="M131.24 96.5493H252.414V0H107.751C48.2829 0 0 48.1816 0 107.525V319.041C0 374.291 44.9274 419.311 100.481 419.311H252.414V323.319H131.24C111.852 323.319 96.193 307.693 96.193 288.346V131.337C96.193 111.99 111.852 96.3633 131.24 96.3633V96.5493Z" fill="#64B333"/>
<path d="M278.621 282.813V232.865C278.621 213.217 294.621 197.241 314.299 197.241H353.288C379.035 197.241 400 218.175 400 243.883V317.335C400 317.335 399.449 318.621 398.713 318.621H314.299C294.621 318.621 278.621 302.645 278.621 282.996V282.813Z" fill="#E65234"/>
</svg>
